<mxfile host="app.diagrams.net" agent="Mozilla/5.0 (Windows NT 10.0; Win64; x64) AppleWebKit/537.36 (KHTML, like Gecko) Chrome/134.0.0.0 Safari/537.36" version="26.1.3">
  <diagram id="C5RBs43oDa-KdzZeNtuy" name="Page-1">
    <mxGraphModel dx="1050" dy="557" grid="1" gridSize="10" guides="1" tooltips="1" connect="1" arrows="1" fold="1" page="1" pageScale="1" pageWidth="827" pageHeight="1169" math="0" shadow="0">
      <root>
        <mxCell id="WIyWlLk6GJQsqaUBKTNV-0" />
        <mxCell id="WIyWlLk6GJQsqaUBKTNV-1" parent="WIyWlLk6GJQsqaUBKTNV-0" />
        <mxCell id="lv9YnxyCzNiJ2VLWQXhp-0" value="Offline Mode Functionality" style="shape=umlFrame;whiteSpace=wrap;html=1;pointerEvents=0;recursiveResize=0;container=1;collapsible=0;width=160;" parent="WIyWlLk6GJQsqaUBKTNV-1" vertex="1">
          <mxGeometry x="230" y="150" width="500" height="490" as="geometry" />
        </mxCell>
        <mxCell id="lv9YnxyCzNiJ2VLWQXhp-1" value="Download Content for Offline Use" style="ellipse;whiteSpace=wrap;html=1;" parent="lv9YnxyCzNiJ2VLWQXhp-0" vertex="1">
          <mxGeometry x="65" y="40" width="110" height="70" as="geometry" />
        </mxCell>
        <mxCell id="lv9YnxyCzNiJ2VLWQXhp-2" value="View Storage Requirements" style="ellipse;whiteSpace=wrap;html=1;" parent="lv9YnxyCzNiJ2VLWQXhp-0" vertex="1">
          <mxGeometry x="240" y="10" width="100" height="60" as="geometry" />
        </mxCell>
        <mxCell id="lv9YnxyCzNiJ2VLWQXhp-3" value="Select Content Categories" style="ellipse;whiteSpace=wrap;html=1;" parent="lv9YnxyCzNiJ2VLWQXhp-0" vertex="1">
          <mxGeometry x="240" y="90" width="100" height="60" as="geometry" />
        </mxCell>
        <mxCell id="lv9YnxyCzNiJ2VLWQXhp-4" value="Navigate Museum in Offline Mode" style="ellipse;whiteSpace=wrap;html=1;" parent="lv9YnxyCzNiJ2VLWQXhp-0" vertex="1">
          <mxGeometry x="60" y="205" width="120" height="80" as="geometry" />
        </mxCell>
        <mxCell id="lv9YnxyCzNiJ2VLWQXhp-5" value="View Offline Map" style="ellipse;whiteSpace=wrap;html=1;" parent="lv9YnxyCzNiJ2VLWQXhp-0" vertex="1">
          <mxGeometry x="240" y="215" width="100" height="60" as="geometry" />
        </mxCell>
        <mxCell id="lv9YnxyCzNiJ2VLWQXhp-7" value="View Exhibit Information in Offline Mode" style="ellipse;whiteSpace=wrap;html=1;" parent="lv9YnxyCzNiJ2VLWQXhp-0" vertex="1">
          <mxGeometry x="60" y="310" width="120" height="60" as="geometry" />
        </mxCell>
        <mxCell id="lv9YnxyCzNiJ2VLWQXhp-8" value="&lt;div&gt;&lt;span style=&quot;background-color: transparent; color: light-dark(rgb(0, 0, 0), rgb(255, 255, 255));&quot;&gt;Synchronize Data When Online&lt;/span&gt;&lt;/div&gt;" style="ellipse;whiteSpace=wrap;html=1;" parent="lv9YnxyCzNiJ2VLWQXhp-0" vertex="1">
          <mxGeometry x="65" y="130" width="110" height="60" as="geometry" />
        </mxCell>
        <mxCell id="lv9YnxyCzNiJ2VLWQXhp-10" value="Manage Offline Content Storage" style="ellipse;whiteSpace=wrap;html=1;" parent="lv9YnxyCzNiJ2VLWQXhp-0" vertex="1">
          <mxGeometry x="60" y="395" width="120" height="80" as="geometry" />
        </mxCell>
        <mxCell id="T8xEX9JWnPnyw04taqtV-0" value="&amp;lt;&amp;lt;include&amp;gt;&amp;gt;" style="html=1;verticalAlign=bottom;labelBackgroundColor=none;endArrow=open;endFill=0;dashed=1;rounded=0;entryX=0;entryY=0.623;entryDx=0;entryDy=0;entryPerimeter=0;exitX=1;exitY=0;exitDx=0;exitDy=0;" parent="lv9YnxyCzNiJ2VLWQXhp-0" source="lv9YnxyCzNiJ2VLWQXhp-1" target="lv9YnxyCzNiJ2VLWQXhp-2" edge="1">
          <mxGeometry width="160" relative="1" as="geometry">
            <mxPoint x="190" y="40" as="sourcePoint" />
            <mxPoint x="350" y="40" as="targetPoint" />
          </mxGeometry>
        </mxCell>
        <mxCell id="T8xEX9JWnPnyw04taqtV-1" value="&amp;lt;&amp;lt;include&amp;gt;&amp;gt;" style="html=1;verticalAlign=bottom;labelBackgroundColor=none;endArrow=open;endFill=0;dashed=1;rounded=0;entryX=0;entryY=0.5;entryDx=0;entryDy=0;exitX=0.947;exitY=0.718;exitDx=0;exitDy=0;exitPerimeter=0;" parent="lv9YnxyCzNiJ2VLWQXhp-0" source="lv9YnxyCzNiJ2VLWQXhp-1" target="lv9YnxyCzNiJ2VLWQXhp-3" edge="1">
          <mxGeometry width="160" relative="1" as="geometry">
            <mxPoint x="196" y="100" as="sourcePoint" />
            <mxPoint x="298" y="105" as="targetPoint" />
          </mxGeometry>
        </mxCell>
        <mxCell id="T8xEX9JWnPnyw04taqtV-3" value="&amp;lt;&amp;lt;include&amp;gt;&amp;gt;" style="html=1;verticalAlign=bottom;labelBackgroundColor=none;endArrow=open;endFill=0;dashed=1;rounded=0;entryX=0;entryY=0.5;entryDx=0;entryDy=0;exitX=1;exitY=0.5;exitDx=0;exitDy=0;" parent="lv9YnxyCzNiJ2VLWQXhp-0" target="lv9YnxyCzNiJ2VLWQXhp-5" edge="1" source="lv9YnxyCzNiJ2VLWQXhp-4">
          <mxGeometry width="160" relative="1" as="geometry">
            <mxPoint x="196" y="217.5" as="sourcePoint" />
            <mxPoint x="298" y="222.5" as="targetPoint" />
          </mxGeometry>
        </mxCell>
        <mxCell id="lv9YnxyCzNiJ2VLWQXhp-14" value="User" style="shape=umlActor;verticalLabelPosition=bottom;verticalAlign=top;html=1;" parent="WIyWlLk6GJQsqaUBKTNV-1" vertex="1">
          <mxGeometry x="140" y="320" width="30" height="60" as="geometry" />
        </mxCell>
        <mxCell id="NS4nRrRc8OESzzoR2rn2-3" value="" style="endArrow=classic;html=1;rounded=0;entryX=0;entryY=0.5;entryDx=0;entryDy=0;" edge="1" parent="WIyWlLk6GJQsqaUBKTNV-1" source="lv9YnxyCzNiJ2VLWQXhp-14" target="lv9YnxyCzNiJ2VLWQXhp-1">
          <mxGeometry width="50" height="50" relative="1" as="geometry">
            <mxPoint x="180" y="320" as="sourcePoint" />
            <mxPoint x="230" y="270" as="targetPoint" />
          </mxGeometry>
        </mxCell>
        <mxCell id="NS4nRrRc8OESzzoR2rn2-4" value="" style="endArrow=classic;html=1;rounded=0;entryX=0;entryY=0.5;entryDx=0;entryDy=0;" edge="1" parent="WIyWlLk6GJQsqaUBKTNV-1" source="lv9YnxyCzNiJ2VLWQXhp-14" target="lv9YnxyCzNiJ2VLWQXhp-4">
          <mxGeometry width="50" height="50" relative="1" as="geometry">
            <mxPoint x="180" y="346" as="sourcePoint" />
            <mxPoint x="280" y="255" as="targetPoint" />
          </mxGeometry>
        </mxCell>
        <mxCell id="NS4nRrRc8OESzzoR2rn2-5" value="" style="endArrow=classic;html=1;rounded=0;entryX=0;entryY=0.5;entryDx=0;entryDy=0;" edge="1" parent="WIyWlLk6GJQsqaUBKTNV-1" source="lv9YnxyCzNiJ2VLWQXhp-14" target="lv9YnxyCzNiJ2VLWQXhp-7">
          <mxGeometry width="50" height="50" relative="1" as="geometry">
            <mxPoint x="190" y="356" as="sourcePoint" />
            <mxPoint x="290" y="265" as="targetPoint" />
          </mxGeometry>
        </mxCell>
        <mxCell id="NS4nRrRc8OESzzoR2rn2-6" value="" style="endArrow=classic;html=1;rounded=0;entryX=0;entryY=0;entryDx=0;entryDy=0;" edge="1" parent="WIyWlLk6GJQsqaUBKTNV-1" source="lv9YnxyCzNiJ2VLWQXhp-14" target="lv9YnxyCzNiJ2VLWQXhp-10">
          <mxGeometry width="50" height="50" relative="1" as="geometry">
            <mxPoint x="200" y="366" as="sourcePoint" />
            <mxPoint x="300" y="275" as="targetPoint" />
          </mxGeometry>
        </mxCell>
        <mxCell id="NS4nRrRc8OESzzoR2rn2-7" value="" style="endArrow=classic;html=1;rounded=0;entryX=0;entryY=0.5;entryDx=0;entryDy=0;" edge="1" parent="WIyWlLk6GJQsqaUBKTNV-1" source="lv9YnxyCzNiJ2VLWQXhp-14" target="lv9YnxyCzNiJ2VLWQXhp-8">
          <mxGeometry width="50" height="50" relative="1" as="geometry">
            <mxPoint x="210" y="376" as="sourcePoint" />
            <mxPoint x="310" y="285" as="targetPoint" />
          </mxGeometry>
        </mxCell>
      </root>
    </mxGraphModel>
  </diagram>
</mxfile>
